STARTFONT 2.1
COMMENT
COMMENT Converted from OpenType font "truongsa_regular.ttf" by "otf2bdf 3.0".
COMMENT
FONT -FreeType-VPS Truong Sa Light Hoa-Medium-R-Normal--17-120-100-100-P-85-ISO10646-1
SIZE 12 100 100
FONTBOUNDINGBOX 15 23 0 -4
STARTPROPERTIES 19
FOUNDRY "FreeType"
FAMILY_NAME "VPS Truong Sa Light Hoa"
WEIGHT_NAME "Medium"
SLANT "R"
SETWIDTH_NAME "Normal"
ADD_STYLE_NAME ""
PIXEL_SIZE 17
POINT_SIZE 120
RESOLUTION_X 100
RESOLUTION_Y 100
SPACING "P"
AVERAGE_WIDTH 85
CHARSET_REGISTRY "ISO10646"
CHARSET_ENCODING "1"
FONT_ASCENT 16
FONT_DESCENT 4
COPYRIGHT "VPS Font"
_OTF_FONTFILE "truongsa_regular.ttf"
_OTF_PSNAME "VPS Truong Sa Light Hoa"
ENDPROPERTIES
CHARS 270
STARTCHAR 0002
ENCODING 2
SWIDTH 600 0
DWIDTH 10 0
BBX 11 14 0 -3
BITMAP
0400
0E00
0A00
1300
1100
3180
2180
3F80
40C0
40C0
4040
E0E0
0000
0C00
ENDCHAR
STARTCHAR 0003
ENCODING 3
SWIDTH 600 0
DWIDTH 10 0
BBX 11 18 0 -3
BITMAP
0400
0A00
1100
0000
0400
0E00
0A00
1300
1100
3180
2180
3F80
40C0
40C0
4040
E0E0
0000
0C00
ENDCHAR
STARTCHAR 0004
ENCODING 4
SWIDTH 600 0
DWIDTH 10 0
BBX 11 17 0 -3
BITMAP
1200
0C00
0000
0400
0E00
0A00
1300
1100
3180
2180
3F80
40C0
40C0
4040
E0E0
0000
0C00
ENDCHAR
STARTCHAR 0005
ENCODING 5
SWIDTH 600 0
DWIDTH 10 0
BBX 9 14 1 -3
BITMAP
FF00
C100
C000
C000
C000
FE00
C000
C000
C000
C000
C080
FF80
0000
1800
ENDCHAR
STARTCHAR 0006
ENCODING 6
SWIDTH 600 0
DWIDTH 10 0
BBX 9 19 1 -3
BITMAP
0800
1400
2200
0000
FF00
C100
C000
C000
C000
FE00
C000
C000
C000
C000
C080
FF80
0000
0800
0800
ENDCHAR
STARTCHAR 0015
ENCODING 21
SWIDTH 660 0
DWIDTH 11 0
BBX 12 18 0 -3
BITMAP
0030
0010
0030
F0E0
6040
6060
6060
6060
6060
6060
6060
6060
6040
30C0
1F80
0000
0600
0600
ENDCHAR
STARTCHAR 0019
ENCODING 25
SWIDTH 600 0
DWIDTH 10 0
BBX 11 15 0 -3
BITMAP
E0E0
6040
6080
3080
1100
0A00
0E00
0400
0400
0400
0400
0E00
0000
0400
0400
ENDCHAR
STARTCHAR 001C
ENCODING 28
SWIDTH 600 0
DWIDTH 10 0
BBX 11 18 0 0
BITMAP
0F00
1000
0400
0A00
1100
0000
0400
0E00
0A00
1300
1100
3180
2180
3F80
40C0
40C0
4040
E0E0
ENDCHAR
STARTCHAR 001D
ENCODING 29
SWIDTH 660 0
DWIDTH 11 0
BBX 12 18 0 0
BITMAP
0780
0800
0000
0030
0010
0030
F0E0
6040
6060
6060
6060
6060
6060
6060
6060
6040
30C0
1F80
ENDCHAR
STARTCHAR 0020
ENCODING 32
SWIDTH 240 0
DWIDTH 4 0
BBX 0 0 0 0
BITMAP
ENDCHAR
STARTCHAR 0021
ENCODING 33
SWIDTH 240 0
DWIDTH 4 0
BBX 2 12 1 0
BITMAP
C0
C0
C0
40
40
40
40
40
00
00
40
C0
ENDCHAR
STARTCHAR 0022
ENCODING 34
SWIDTH 300 0
DWIDTH 5 0
BBX 4 5 1 7
BITMAP
B0
B0
90
A0
80
ENDCHAR
STARTCHAR 0023
ENCODING 35
SWIDTH 720 0
DWIDTH 12 0
BBX 11 12 1 0
BITMAP
0440
0480
0480
0880
7FE0
1900
1100
FFC0
2200
2600
2400
4400
ENDCHAR
STARTCHAR 0024
ENCODING 36
SWIDTH 540 0
DWIDTH 9 0
BBX 7 15 1 -2
BITMAP
10
7C
D2
92
D0
70
38
1E
12
12
92
92
7C
10
10
ENDCHAR
STARTCHAR 0025
ENCODING 37
SWIDTH 840 0
DWIDTH 14 0
BBX 13 12 1 1
BITMAP
7CC0
C780
8480
C500
4D00
3200
0260
0590
0918
0918
1118
10F0
ENDCHAR
STARTCHAR 0026
ENCODING 38
SWIDTH 720 0
DWIDTH 12 0
BBX 12 12 0 0
BITMAP
1E00
2100
2100
3200
1400
18F0
2C60
4440
C280
C380
4380
3EF0
ENDCHAR
STARTCHAR 0027
ENCODING 39
SWIDTH 120 0
DWIDTH 2 0
BBX 1 5 1 7
BITMAP
80
80
80
80
80
ENDCHAR
STARTCHAR 0028
ENCODING 40
SWIDTH 300 0
DWIDTH 5 0
BBX 3 14 1 -3
BITMAP
20
20
40
40
40
40
C0
C0
C0
40
40
40
60
20
ENDCHAR
STARTCHAR 0029
ENCODING 41
SWIDTH 300 0
DWIDTH 5 0
BBX 3 15 1 -3
BITMAP
80
40
40
60
20
20
20
20
20
20
60
40
40
40
80
ENDCHAR
STARTCHAR 002A
ENCODING 42
SWIDTH 480 0
DWIDTH 8 0
BBX 6 6 1 6
BITMAP
30
E4
68
30
EC
30
ENDCHAR
STARTCHAR 002B
ENCODING 43
SWIDTH 780 0
DWIDTH 13 0
BBX 10 10 2 0
BITMAP
0800
0800
0800
0800
0800
FFC0
0800
0800
0800
0800
ENDCHAR
STARTCHAR 002C
ENCODING 44
SWIDTH 240 0
DWIDTH 4 0
BBX 2 4 1 -2
BITMAP
C0
40
40
80
ENDCHAR
STARTCHAR 002D
ENCODING 45
SWIDTH 300 0
DWIDTH 5 0
BBX 4 1 1 3
BITMAP
F0
ENDCHAR
STARTCHAR 002E
ENCODING 46
SWIDTH 240 0
DWIDTH 4 0
BBX 2 2 1 0
BITMAP
40
C0
ENDCHAR
STARTCHAR 002F
ENCODING 47
SWIDTH 240 0
DWIDTH 4 0
BBX 4 12 0 -1
BITMAP
10
10
20
20
20
40
40
40
80
80
80
80
ENDCHAR
STARTCHAR 0030
ENCODING 48
SWIDTH 540 0
DWIDTH 9 0
BBX 8 12 1 0
BITMAP
7C
C6
82
82
83
83
83
83
82
82
C6
7C
ENDCHAR
STARTCHAR 0031
ENCODING 49
SWIDTH 540 0
DWIDTH 9 0
BBX 7 12 1 0
BITMAP
18
F8
18
18
18
18
18
18
18
18
18
7E
ENDCHAR
STARTCHAR 0032
ENCODING 50
SWIDTH 540 0
DWIDTH 9 0
BBX 8 12 0 0
BITMAP
3E
43
41
41
03
06
0C
18
30
60
41
FF
ENDCHAR
STARTCHAR 0033
ENCODING 51
SWIDTH 540 0
DWIDTH 9 0
BBX 8 12 0 0
BITMAP
3E
43
43
03
06
18
06
01
01
C1
C3
7E
ENDCHAR
STARTCHAR 0034
ENCODING 52
SWIDTH 540 0
DWIDTH 9 0
BBX 9 12 0 0
BITMAP
0600
0A00
1200
3200
2200
4200
4200
8200
FF80
0200
0200
0F00
ENDCHAR
STARTCHAR 0035
ENCODING 53
SWIDTH 540 0
DWIDTH 9 0
BBX 8 12 0 0
BITMAP
7E
40
40
40
40
7F
01
01
01
C1
C3
7E
ENDCHAR
STARTCHAR 0036
ENCODING 54
SWIDTH 540 0
DWIDTH 9 0
BBX 8 12 1 0
BITMAP
1C
20
40
C0
80
FE
82
83
83
82
C2
7C
ENDCHAR
STARTCHAR 0037
ENCODING 55
SWIDTH 540 0
DWIDTH 9 0
BBX 7 12 1 0
BITMAP
FE
82
82
04
04
0C
08
18
10
10
30
30
ENDCHAR
STARTCHAR 0038
ENCODING 56
SWIDTH 540 0
DWIDTH 9 0
BBX 9 12 0 0
BITMAP
3E00
4100
4100
4100
7200
3C00
3700
4100
C180
C180
4100
3E00
ENDCHAR
STARTCHAR 0039
ENCODING 57
SWIDTH 540 0
DWIDTH 9 0
BBX 9 12 0 0
BITMAP
3E00
4300
4100
C180
4180
4180
3F00
0100
0300
0200
0400
3800
ENDCHAR
STARTCHAR 003A
ENCODING 58
SWIDTH 240 0
DWIDTH 4 0
BBX 2 7 1 0
BITMAP
C0
00
00
00
00
40
C0
ENDCHAR
STARTCHAR 003B
ENCODING 59
SWIDTH 240 0
DWIDTH 4 0
BBX 2 10 1 -3
BITMAP
C0
00
00
00
00
00
C0
40
40
80
ENDCHAR
STARTCHAR 003C
ENCODING 60
SWIDTH 780 0
DWIDTH 13 0
BBX 10 8 2 1
BITMAP
00C0
0700
1800
E000
E000
1800
0700
00C0
ENDCHAR
STARTCHAR 003D
ENCODING 61
SWIDTH 780 0
DWIDTH 13 0
BBX 10 4 2 3
BITMAP
FFC0
0000
0000
FFC0
ENDCHAR
STARTCHAR 003E
ENCODING 62
SWIDTH 780 0
DWIDTH 13 0
BBX 10 8 2 1
BITMAP
C000
3800
0600
0180
01C0
0600
3800
C000
ENDCHAR
STARTCHAR 003F
ENCODING 63
SWIDTH 420 0
DWIDTH 7 0
BBX 7 12 0 0
BITMAP
7C
C4
46
06
04
0C
30
20
20
00
20
30
ENDCHAR
STARTCHAR 0040
ENCODING 64
SWIDTH 960 0
DWIDTH 16 0
BBX 14 14 1 -2
BITMAP
03C0
0C30
3008
4004
43A4
8464
8C64
8844
8844
88C8
4550
4220
2008
1FF0
ENDCHAR
STARTCHAR 0041
ENCODING 65
SWIDTH 600 0
DWIDTH 10 0
BBX 11 12 0 0
BITMAP
0400
0E00
0A00
1300
1100
3180
2180
3F80
40C0
40C0
4040
E0E0
ENDCHAR
STARTCHAR 0042
ENCODING 66
SWIDTH 660 0
DWIDTH 11 0
BBX 10 12 1 0
BITMAP
FF00
C180
C180
C180
C300
DC00
E380
C080
C0C0
C0C0
C180
FF00
ENDCHAR
STARTCHAR 0043
ENCODING 67
SWIDTH 660 0
DWIDTH 11 0
BBX 10 12 1 0
BITMAP
1F80
60C0
4040
C000
8000
8000
8000
8000
C000
C040
60C0
3F80
ENDCHAR
STARTCHAR 0044
ENCODING 68
SWIDTH 720 0
DWIDTH 12 0
BBX 10 12 1 0
BITMAP
FE00
C180
C0C0
C0C0
C040
C040
C040
C040
C0C0
C0C0
C180
FE00
ENDCHAR
STARTCHAR 0045
ENCODING 69
SWIDTH 600 0
DWIDTH 10 0
BBX 9 12 1 0
BITMAP
FF00
C100
C000
C000
C000
FE00
C000
C000
C000
C000
C080
FF80
ENDCHAR
STARTCHAR 0046
ENCODING 70
SWIDTH 540 0
DWIDTH 9 0
BBX 9 12 0 0
BITMAP
7F80
6080
6000
6000
6000
7F00
6100
6000
6000
6000
6000
F000
ENDCHAR
STARTCHAR 0047
ENCODING 71
SWIDTH 720 0
DWIDTH 12 0
BBX 11 12 1 0
BITMAP
1FC0
2040
4040
C000
C000
8000
81E0
8060
C060
C060
6060
3FC0
ENDCHAR
STARTCHAR 0048
ENCODING 72
SWIDTH 720 0
DWIDTH 12 0
BBX 11 12 1 0
BITMAP
E0E0
C040
C040
C040
C040
FFC0
C040
C040
C040
C040
C040
E0E0
ENDCHAR
STARTCHAR 0049
ENCODING 73
SWIDTH 240 0
DWIDTH 4 0
BBX 3 12 1 0
BITMAP
E0
40
40
40
40
40
40
40
40
40
40
E0
ENDCHAR
STARTCHAR 004A
ENCODING 74
SWIDTH 420 0
DWIDTH 7 0
BBX 7 12 0 0
BITMAP
0E
04
04
04
04
04
04
04
C4
84
84
78
ENDCHAR
STARTCHAR 004B
ENCODING 75
SWIDTH 600 0
DWIDTH 10 0
BBX 10 12 1 0
BITMAP
E380
C300
C200
C400
C800
DC00
E400
C600
C300
C100
C180
E1C0
ENDCHAR
STARTCHAR 004C
ENCODING 76
SWIDTH 540 0
DWIDTH 9 0
BBX 9 12 1 0
BITMAP
E000
C000
C000
C000
C000
C000
C000
C000
C000
C000
C080
FF80
ENDCHAR
STARTCHAR 004D
ENCODING 77
SWIDTH 780 0
DWIDTH 13 0
BBX 13 12 0 0
BITMAP
F038
3030
3070
3850
2850
6C90
6490
6710
6710
6210
6010
F038
ENDCHAR
STARTCHAR 004E
ENCODING 78
SWIDTH 720 0
DWIDTH 12 0
BBX 12 12 0 0
BITMAP
E070
7020
5820
4C20
4620
4220
4320
41A0
40A0
40E0
6060
F020
ENDCHAR
STARTCHAR 004F
ENCODING 79
SWIDTH 720 0
DWIDTH 12 0
BBX 11 12 1 0
BITMAP
3F00
60C0
C040
C060
8060
8020
8020
8060
C060
C040
60C0
3F00
ENDCHAR
STARTCHAR 0050
ENCODING 80
SWIDTH 600 0
DWIDTH 10 0
BBX 9 12 1 0
BITMAP
FE00
C300
C180
C180
C180
C300
FC00
C000
C000
C000
C000
E000
ENDCHAR
STARTCHAR 0051
ENCODING 81
SWIDTH 720 0
DWIDTH 12 0
BBX 11 14 1 -2
BITMAP
3F00
60C0
C040
C060
8060
8020
8020
8060
C060
C440
64C0
3F00
0300
01E0
ENDCHAR
STARTCHAR 0052
ENCODING 82
SWIDTH 600 0
DWIDTH 10 0
BBX 10 12 1 0
BITMAP
FF00
C180
C180
C180
C300
CE00
F600
C200
C300
C100
C180
E3C0
ENDCHAR
STARTCHAR 0053
ENCODING 83
SWIDTH 540 0
DWIDTH 9 0
BBX 9 12 0 0
BITMAP
3F00
4100
4000
4000
6000
3E00
0780
0180
0080
8080
4180
3F00
ENDCHAR
STARTCHAR 0054
ENCODING 84
SWIDTH 600 0
DWIDTH 10 0
BBX 10 12 0 0
BITMAP
FFC0
8C40
0C00
0C00
0C00
0C00
0C00
0C00
0C00
0C00
0C00
1E00
ENDCHAR
STARTCHAR 0055
ENCODING 85
SWIDTH 660 0
DWIDTH 11 0
BBX 11 12 0 0
BITMAP
F0E0
6040
6060
6060
6060
6060
6060
6060
6060
6040
30C0
1F80
ENDCHAR
STARTCHAR 0056
ENCODING 86
SWIDTH 600 0
DWIDTH 10 0
BBX 11 12 0 0
BITMAP
E0E0
4040
4040
60C0
6080
2080
3180
1100
1900
1A00
0E00
0C00
ENDCHAR
STARTCHAR 0057
ENCODING 87
SWIDTH 900 0
DWIDTH 15 0
BBX 15 12 0 0
BITMAP
E38E
4106
4184
6184
6184
2284
22C8
3248
3448
1478
1C30
1830
ENDCHAR
STARTCHAR 0058
ENCODING 88
SWIDTH 660 0
DWIDTH 11 0
BBX 11 12 0 0
BITMAP
F1C0
6080
3100
1100
1A00
0C00
0E00
1B00
1100
2080
60C0
E0E0
ENDCHAR
STARTCHAR 0059
ENCODING 89
SWIDTH 600 0
DWIDTH 10 0
BBX 11 12 0 0
BITMAP
E0E0
6040
6080
3080
1100
0A00
0E00
0400
0400
0400
0400
0E00
ENDCHAR
STARTCHAR 005A
ENCODING 90
SWIDTH 540 0
DWIDTH 9 0
BBX 9 12 0 0
BITMAP
7F80
4100
0300
0600
0400
0C00
1800
1000
3000
6000
4180
FF80
ENDCHAR
STARTCHAR 005B
ENCODING 91
SWIDTH 300 0
DWIDTH 5 0
BBX 2 14 2 -2
BITMAP
C0
80
80
80
80
80
80
80
80
80
80
80
80
C0
ENDCHAR
STARTCHAR 005C
ENCODING 92
SWIDTH 240 0
DWIDTH 4 0
BBX 4 13 0 -2
BITMAP
80
80
80
80
40
40
40
20
20
20
10
10
10
ENDCHAR
STARTCHAR 005D
ENCODING 93
SWIDTH 300 0
DWIDTH 5 0
BBX 3 14 1 -2
BITMAP
E0
20
20
20
20
20
20
20
20
20
20
20
20
60
ENDCHAR
STARTCHAR 005E
ENCODING 94
SWIDTH 960 0
DWIDTH 16 0
BBX 9 5 4 7
BITMAP
1800
3400
6200
C100
0080
ENDCHAR
STARTCHAR 005F
ENCODING 95
SWIDTH 480 0
DWIDTH 8 0
BBX 8 1 0 -4
BITMAP
FF
ENDCHAR
STARTCHAR 0060
ENCODING 96
SWIDTH 480 0
DWIDTH 8 0
BBX 3 3 2 9
BITMAP
80
C0
20
ENDCHAR
STARTCHAR 0061
ENCODING 97
SWIDTH 600 0
DWIDTH 10 0
BBX 11 12 0 0
BITMAP
0400
0E00
0A00
1300
1100
3180
2180
3F80
40C0
40C0
4040
E0E0
ENDCHAR
STARTCHAR 0062
ENCODING 98
SWIDTH 660 0
DWIDTH 11 0
BBX 10 12 1 0
BITMAP
FF00
C180
C180
C180
C300
DC00
E380
C080
C0C0
C0C0
C180
FF00
ENDCHAR
STARTCHAR 0063
ENCODING 99
SWIDTH 660 0
DWIDTH 11 0
BBX 10 12 1 0
BITMAP
1F80
60C0
4040
C000
8000
8000
8000
8000
C000
C040
60C0
3F80
ENDCHAR
STARTCHAR 0064
ENCODING 100
SWIDTH 720 0
DWIDTH 12 0
BBX 10 12 1 0
BITMAP
FE00
C180
C0C0
C0C0
C040
C040
C040
C040
C0C0
C0C0
C180
FE00
ENDCHAR
STARTCHAR 0065
ENCODING 101
SWIDTH 600 0
DWIDTH 10 0
BBX 9 12 1 0
BITMAP
FF00
C100
C000
C000
C000
FE00
C000
C000
C000
C000
C080
FF80
ENDCHAR
STARTCHAR 0066
ENCODING 102
SWIDTH 540 0
DWIDTH 9 0
BBX 9 12 0 0
BITMAP
7F80
6080
6000
6000
6000
7F00
6100
6000
6000
6000
6000
F000
ENDCHAR
STARTCHAR 0067
ENCODING 103
SWIDTH 720 0
DWIDTH 12 0
BBX 11 12 1 0
BITMAP
1FC0
2040
4040
C000
C000
8000
81E0
8060
C060
C060
6060
3FC0
ENDCHAR
STARTCHAR 0068
ENCODING 104
SWIDTH 720 0
DWIDTH 12 0
BBX 11 12 1 0
BITMAP
E0E0
C040
C040
C040
C040
FFC0
C040
C040
C040
C040
C040
E0E0
ENDCHAR
STARTCHAR 0069
ENCODING 105
SWIDTH 240 0
DWIDTH 4 0
BBX 3 12 1 0
BITMAP
E0
40
40
40
40
40
40
40
40
40
40
E0
ENDCHAR
STARTCHAR 006A
ENCODING 106
SWIDTH 420 0
DWIDTH 7 0
BBX 7 12 0 0
BITMAP
0E
04
04
04
04
04
04
04
C4
84
84
78
ENDCHAR
STARTCHAR 006B
ENCODING 107
SWIDTH 600 0
DWIDTH 10 0
BBX 10 12 1 0
BITMAP
E380
C300
C200
C400
C800
DC00
E400
C600
C300
C100
C180
E1C0
ENDCHAR
STARTCHAR 006C
ENCODING 108
SWIDTH 540 0
DWIDTH 9 0
BBX 9 12 1 0
BITMAP
E000
C000
C000
C000
C000
C000
C000
C000
C000
C000
C080
FF80
ENDCHAR
STARTCHAR 006D
ENCODING 109
SWIDTH 780 0
DWIDTH 13 0
BBX 13 12 0 0
BITMAP
F038
3030
3070
3850
2850
6C90
6490
6710
6710
6210
6010
F038
ENDCHAR
STARTCHAR 006E
ENCODING 110
SWIDTH 720 0
DWIDTH 12 0
BBX 12 12 0 0
BITMAP
E070
7020
5820
4C20
4620
4220
4320
41A0
40A0
40E0
6060
F020
ENDCHAR
STARTCHAR 006F
ENCODING 111
SWIDTH 720 0
DWIDTH 12 0
BBX 11 12 1 0
BITMAP
3F00
60C0
C040
C060
8060
8020
8020
8060
C060
C040
60C0
3F00
ENDCHAR
STARTCHAR 0070
ENCODING 112
SWIDTH 600 0
DWIDTH 10 0
BBX 9 12 1 0
BITMAP
FE00
C300
C180
C180
C180
C300
FC00
C000
C000
C000
C000
E000
ENDCHAR
STARTCHAR 0071
ENCODING 113
SWIDTH 720 0
DWIDTH 12 0
BBX 11 14 1 -2
BITMAP
3F00
60C0
C040
C060
8060
8020
8020
8060
C060
C440
64C0
3F00
0300
01E0
ENDCHAR
STARTCHAR 0072
ENCODING 114
SWIDTH 600 0
DWIDTH 10 0
BBX 10 12 1 0
BITMAP
FF00
C180
C180
C180
C300
CE00
F600
C200
C300
C100
C180
E3C0
ENDCHAR
STARTCHAR 0073
ENCODING 115
SWIDTH 540 0
DWIDTH 9 0
BBX 9 12 0 0
BITMAP
3F00
4100
4000
4000
6000
3E00
0780
0180
0080
8080
4180
3F00
ENDCHAR
STARTCHAR 0074
ENCODING 116
SWIDTH 600 0
DWIDTH 10 0
BBX 10 12 0 0
BITMAP
FFC0
8C40
0C00
0C00
0C00
0C00
0C00
0C00
0C00
0C00
0C00
1E00
ENDCHAR
STARTCHAR 0075
ENCODING 117
SWIDTH 660 0
DWIDTH 11 0
BBX 11 12 0 0
BITMAP
F0E0
6040
6060
6060
6060
6060
6060
6060
6060
6040
30C0
1F80
ENDCHAR
STARTCHAR 0076
ENCODING 118
SWIDTH 600 0
DWIDTH 10 0
BBX 11 12 0 0
BITMAP
E0E0
4040
4040
60C0
6080
2080
3180
1100
1900
1A00
0E00
0C00
ENDCHAR
STARTCHAR 0077
ENCODING 119
SWIDTH 900 0
DWIDTH 15 0
BBX 15 12 0 0
BITMAP
E38E
4106
4184
6184
6184
2284
22C8
3248
3448
1478
1C30
1830
ENDCHAR
STARTCHAR 0078
ENCODING 120
SWIDTH 660 0
DWIDTH 11 0
BBX 11 12 0 0
BITMAP
F1C0
6080
3100
1100
1A00
0C00
0E00
1B00
1100
2080
60C0
E0E0
ENDCHAR
STARTCHAR 0079
ENCODING 121
SWIDTH 600 0
DWIDTH 10 0
BBX 11 12 0 0
BITMAP
E0E0
6040
6080
3080
1100
0A00
0E00
0400
0400
0400
0400
0E00
ENDCHAR
STARTCHAR 007A
ENCODING 122
SWIDTH 540 0
DWIDTH 9 0
BBX 9 12 0 0
BITMAP
7F80
4100
0300
0600
0400
0C00
1800
1000
3000
6000
4180
FF80
ENDCHAR
STARTCHAR 007B
ENCODING 123
SWIDTH 480 0
DWIDTH 8 0
BBX 4 14 2 -2
BITMAP
30
20
20
20
20
20
C0
40
20
20
20
20
20
10
ENDCHAR
STARTCHAR 007C
ENCODING 124
SWIDTH 480 0
DWIDTH 8 0
BBX 1 17 4 -4
BITMAP
80
80
80
80
80
80
80
80
80
80
80
80
80
80
80
80
80
ENDCHAR
STARTCHAR 007D
ENCODING 125
SWIDTH 480 0
DWIDTH 8 0
BBX 4 14 2 -2
BITMAP
C0
60
60
60
20
20
10
20
20
60
60
60
40
C0
ENDCHAR
STARTCHAR 007E
ENCODING 126
SWIDTH 780 0
DWIDTH 13 0
BBX 11 2 1 4
BITMAP
3C20
C3C0
ENDCHAR
STARTCHAR 0080
ENCODING 128
SWIDTH 600 0
DWIDTH 10 0
BBX 11 16 0 0
BITMAP
1800
0C00
0200
0000
0400
0E00
0A00
1300
1100
3180
2180
3F80
40C0
40C0
4040
E0E0
ENDCHAR
STARTCHAR 0081
ENCODING 129
SWIDTH 600 0
DWIDTH 10 0
BBX 11 17 0 0
BITMAP
0E00
0200
0400
0000
0000
0400
0E00
0A00
1300
1100
3180
2180
3F80
40C0
40C0
4040
E0E0
ENDCHAR
STARTCHAR 008D
ENCODING 141
SWIDTH 600 0
DWIDTH 10 0
BBX 11 18 0 0
BITMAP
0100
0200
0400
1200
0C00
0000
0400
0E00
0A00
1300
1100
3180
2180
3F80
40C0
40C0
4040
E0E0
ENDCHAR
STARTCHAR 008E
ENCODING 142
SWIDTH 600 0
DWIDTH 10 0
BBX 11 18 0 0
BITMAP
3000
0800
0400
1200
0C00
0000
0400
0E00
0A00
1300
1100
3180
2180
3F80
40C0
40C0
4040
E0E0
ENDCHAR
STARTCHAR 008F
ENCODING 143
SWIDTH 600 0
DWIDTH 10 0
BBX 11 19 0 0
BITMAP
0E00
0200
0400
0000
1200
0C00
0000
0400
0E00
0A00
1300
1100
3180
2180
3F80
40C0
40C0
4040
E0E0
ENDCHAR
STARTCHAR 0090
ENCODING 144
SWIDTH 600 0
DWIDTH 10 0
BBX 10 18 1 0
BITMAP
00C0
0180
0A00
1400
2200
0000
FF00
C100
C000
C000
C000
FE00
C000
C000
C000
C000
C080
FF80
ENDCHAR
STARTCHAR 009D
ENCODING 157
SWIDTH 720 0
DWIDTH 12 0
BBX 11 17 1 0
BITMAP
0100
0200
04C0
0020
0040
3F80
60C0
C040
C060
8060
8020
8020
8060
C060
C040
60C0
3F00
ENDCHAR
STARTCHAR 009E
ENCODING 158
SWIDTH 720 0
DWIDTH 12 0
BBX 11 17 1 0
BITMAP
1000
0800
04C0
0020
0040
3F80
60C0
C040
C060
8060
8020
8020
8060
C060
C040
60C0
3F00
ENDCHAR
STARTCHAR 00A0
ENCODING 160
SWIDTH 540 0
DWIDTH 9 0
BBX 0 0 0 0
BITMAP
ENDCHAR
STARTCHAR 00A1
ENCODING 161
SWIDTH 600 0
DWIDTH 10 0
BBX 11 18 0 0
BITMAP
0100
0200
0400
1200
0C00
0000
0400
0E00
0A00
1300
1100
3180
2180
3F80
40C0
40C0
4040
E0E0
ENDCHAR
STARTCHAR 00A2
ENCODING 162
SWIDTH 600 0
DWIDTH 10 0
BBX 11 18 0 0
BITMAP
3000
0800
0400
1200
0C00
0000
0400
0E00
0A00
1300
1100
3180
2180
3F80
40C0
40C0
4040
E0E0
ENDCHAR
STARTCHAR 00A3
ENCODING 163
SWIDTH 600 0
DWIDTH 10 0
BBX 11 19 0 0
BITMAP
0E00
0200
0400
0000
1200
0C00
0000
0400
0E00
0A00
1300
1100
3180
2180
3F80
40C0
40C0
4040
E0E0
ENDCHAR
STARTCHAR 00A4
ENCODING 164
SWIDTH 600 0
DWIDTH 10 0
BBX 11 18 0 0
BITMAP
0F00
1000
0000
1200
0C00
0000
0400
0E00
0A00
1300
1100
3180
2180
3F80
40C0
40C0
4040
E0E0
ENDCHAR
STARTCHAR 00A5
ENCODING 165
SWIDTH 600 0
DWIDTH 10 0
BBX 11 17 0 -3
BITMAP
1200
0C00
0000
0400
0E00
0A00
1300
1100
3180
2180
3F80
40C0
40C0
4040
E0E0
0000
0C00
ENDCHAR
STARTCHAR 00A6
ENCODING 166
SWIDTH 720 0
DWIDTH 12 0
BBX 11 18 1 0
BITMAP
0D00
1200
0000
00C0
0020
0040
3F80
60C0
C040
C060
8060
8020
8020
8060
C060
C040
60C0
3F00
ENDCHAR
STARTCHAR 00A7
ENCODING 167
SWIDTH 720 0
DWIDTH 12 0
BBX 11 17 1 0
BITMAP
0100
0200
04C0
0020
0040
3F80
60C0
C040
C060
8060
8020
8020
8060
C060
C040
60C0
3F00
ENDCHAR
STARTCHAR 00A8
ENCODING 168
SWIDTH 660 0
DWIDTH 11 0
BBX 11 16 0 0
BITMAP
0800
0400
0200
0000
F0E0
6040
6060
6060
6060
6060
6060
6060
6060
6040
30C0
1F80
ENDCHAR
STARTCHAR 00A9
ENCODING 169
SWIDTH 720 0
DWIDTH 12 0
BBX 11 17 1 0
BITMAP
1000
0800
04C0
0020
0040
3F80
60C0
C040
C060
8060
8020
8020
8060
C060
C040
60C0
3F00
ENDCHAR
STARTCHAR 00AA
ENCODING 170
SWIDTH 720 0
DWIDTH 12 0
BBX 11 18 1 0
BITMAP
0E00
0200
0200
04C0
0020
0040
3F80
60C0
C040
C060
8060
8020
8020
8060
C060
C040
60C0
3F00
ENDCHAR
STARTCHAR 00AB
ENCODING 171
SWIDTH 720 0
DWIDTH 12 0
BBX 11 18 1 0
BITMAP
0D00
1200
0000
00C0
0020
0040
3F80
60C0
C040
C060
8060
8020
8020
8060
C060
C040
60C0
3F00
ENDCHAR
STARTCHAR 00AC
ENCODING 172
SWIDTH 660 0
DWIDTH 11 0
BBX 11 15 0 0
BITMAP
0780
0800
0000
F0E0
6040
6060
6060
6060
6060
6060
6060
6060
6040
30C0
1F80
ENDCHAR
STARTCHAR 00AD
ENCODING 173
SWIDTH 660 0
DWIDTH 11 0
BBX 12 17 0 0
BITMAP
0180
0100
0230
0010
0030
F0E0
6040
6060
6060
6060
6060
6060
6060
6060
6040
30C0
1F80
ENDCHAR
STARTCHAR 00AE
ENCODING 174
SWIDTH 720 0
DWIDTH 12 0
BBX 11 18 1 -3
BITMAP
00C0
0020
0040
3F80
60C0
C040
C060
8060
8020
8020
8060
C060
C040
60C0
3F00
0000
0400
0400
ENDCHAR
STARTCHAR 00AF
ENCODING 175
SWIDTH 660 0
DWIDTH 11 0
BBX 12 17 0 0
BITMAP
0800
0400
0230
0010
0030
F0E0
6040
6060
6060
6060
6060
6060
6060
6060
6040
30C0
1F80
ENDCHAR
STARTCHAR 00B0
ENCODING 176
SWIDTH 720 0
DWIDTH 12 0
BBX 11 19 1 0
BITMAP
0080
0140
0080
0500
0A00
1100
0000
3F00
60C0
C040
C060
8060
8020
8020
8060
C060
C040
60C0
3F00
ENDCHAR
STARTCHAR 00B1
ENCODING 177
SWIDTH 660 0
DWIDTH 11 0
BBX 12 17 0 0
BITMAP
0700
0100
0230
0010
0030
F0E0
6040
6060
6060
6060
6060
6060
6060
6060
6040
30C0
1F80
ENDCHAR
STARTCHAR 00B2
ENCODING 178
SWIDTH 600 0
DWIDTH 10 0
BBX 11 16 0 0
BITMAP
1000
0800
0400
0000
E0E0
6040
6080
3080
1100
0A00
0E00
0400
0400
0400
0400
0E00
ENDCHAR
STARTCHAR 00B3
ENCODING 179
SWIDTH 600 0
DWIDTH 10 0
BBX 11 15 0 1
BITMAP
0F00
0000
0000
E0E0
6040
6080
3080
1100
0A00
0E00
0400
0400
0400
0400
0E00
ENDCHAR
STARTCHAR 00B4
ENCODING 180
SWIDTH 240 0
DWIDTH 4 0
BBX 4 16 1 0
BITMAP
30
40
80
00
E0
40
40
40
40
40
40
40
40
40
40
E0
ENDCHAR
STARTCHAR 00B5
ENCODING 181
SWIDTH 240 0
DWIDTH 4 0
BBX 4 16 0 0
BITMAP
C0
60
00
00
70
20
20
20
20
20
20
20
20
20
20
70
ENDCHAR
STARTCHAR 00B6
ENCODING 182
SWIDTH 720 0
DWIDTH 12 0
BBX 11 19 1 -3
BITMAP
0400
0A00
1100
0000
3F00
60C0
C040
C060
8060
8020
8020
8060
C060
C040
60C0
3F00
0000
0400
0400
ENDCHAR
STARTCHAR 00B8
ENCODING 184
SWIDTH 240 0
DWIDTH 4 0
BBX 4 15 0 0
BITMAP
F0
00
00
70
20
20
20
20
20
20
20
20
20
20
70
ENDCHAR
STARTCHAR 00B9
ENCODING 185
SWIDTH 720 0
DWIDTH 12 0
BBX 11 16 1 0
BITMAP
0300
0600
0800
0000
3F00
60C0
C040
C060
8060
8020
8020
8060
C060
C040
60C0
3F00
ENDCHAR
STARTCHAR 00BA
ENCODING 186
SWIDTH 660 0
DWIDTH 11 0
BBX 12 17 0 0
BITMAP
0700
0100
0230
0010
0030
F0E0
6040
6060
6060
6060
6060
6060
6060
6060
6040
30C0
1F80
ENDCHAR
STARTCHAR 00BB
ENCODING 187
SWIDTH 660 0
DWIDTH 11 0
BBX 12 18 0 0
BITMAP
0780
0800
0000
0030
0010
0030
F0E0
6040
6060
6060
6060
6060
6060
6060
6060
6040
30C0
1F80
ENDCHAR
STARTCHAR 00BC
ENCODING 188
SWIDTH 720 0
DWIDTH 12 0
BBX 11 16 1 0
BITMAP
1800
0C00
0200
0000
3F00
60C0
C040
C060
8060
8020
8020
8060
C060
C040
60C0
3F00
ENDCHAR
STARTCHAR 00BD
ENCODING 189
SWIDTH 720 0
DWIDTH 12 0
BBX 11 17 1 0
BITMAP
0E00
0200
0200
0400
0000
3F00
60C0
C040
C060
8060
8020
8020
8060
C060
C040
60C0
3F00
ENDCHAR
STARTCHAR 00BE
ENCODING 190
SWIDTH 720 0
DWIDTH 12 0
BBX 11 16 1 0
BITMAP
0100
1E00
0000
0000
3F00
60C0
C040
C060
8060
8020
8020
8060
C060
C040
60C0
3F00
ENDCHAR
STARTCHAR 00BF
ENCODING 191
SWIDTH 660 0
DWIDTH 11 0
BBX 12 18 0 -3
BITMAP
0030
0010
0030
F0E0
6040
6060
6060
6060
6060
6060
6060
6060
6040
30C0
1F80
0000
0600
0400
ENDCHAR
STARTCHAR 00C0
ENCODING 192
SWIDTH 600 0
DWIDTH 10 0
BBX 11 18 0 0
BITMAP
C000
6000
1400
0A00
1100
0000
0400
0E00
0A00
1300
1100
3180
2180
3F80
40C0
40C0
4040
E0E0
ENDCHAR
STARTCHAR 00C1
ENCODING 193
SWIDTH 600 0
DWIDTH 10 0
BBX 11 16 0 0
BITMAP
0300
0600
0800
0000
0400
0E00
0A00
1300
1100
3180
2180
3F80
40C0
40C0
4040
E0E0
ENDCHAR
STARTCHAR 00C2
ENCODING 194
SWIDTH 600 0
DWIDTH 10 0
BBX 11 16 0 0
BITMAP
0400
0A00
1100
0000
0400
0E00
0A00
1300
1100
3180
2180
3F80
40C0
40C0
4040
E0E0
ENDCHAR
STARTCHAR 00C3
ENCODING 195
SWIDTH 600 0
DWIDTH 10 0
BBX 11 18 0 0
BITMAP
0020
0040
0480
0A00
1100
0000
0400
0E00
0A00
1300
1100
3180
2180
3F80
40C0
40C0
4040
E0E0
ENDCHAR
STARTCHAR 00C4
ENCODING 196
SWIDTH 600 0
DWIDTH 10 0
BBX 11 19 0 0
BITMAP
0180
0080
0080
0500
0A00
1100
0000
0400
0E00
0A00
1300
1100
3180
2180
3F80
40C0
40C0
4040
E0E0
ENDCHAR
STARTCHAR 00C5
ENCODING 197
SWIDTH 600 0
DWIDTH 10 0
BBX 11 18 0 0
BITMAP
0F00
1000
0400
0A00
1100
0000
0400
0E00
0A00
1300
1100
3180
2180
3F80
40C0
40C0
4040
E0E0
ENDCHAR
STARTCHAR 00C6
ENCODING 198
SWIDTH 600 0
DWIDTH 10 0
BBX 11 18 0 -3
BITMAP
0400
0A00
1100
0000
0400
0E00
0A00
1300
1100
3180
2180
3F80
40C0
40C0
4040
E0E0
0000
0C00
ENDCHAR
STARTCHAR 00C7
ENCODING 199
SWIDTH 720 0
DWIDTH 12 0
BBX 12 12 0 0
BITMAP
7F00
20C0
2060
2060
2020
FC30
2030
2020
2060
2060
20C0
7F00
ENDCHAR
STARTCHAR 00C8
ENCODING 200
SWIDTH 600 0
DWIDTH 10 0
BBX 9 17 1 0
BITMAP
1C00
0400
0800
0000
0000
FF00
C100
C000
C000
C000
FE00
C000
C000
C000
C000
C080
FF80
ENDCHAR
STARTCHAR 00C9
ENCODING 201
SWIDTH 600 0
DWIDTH 10 0
BBX 9 16 1 0
BITMAP
0600
0C00
1000
0000
FF00
C100
C000
C000
C000
FE00
C000
C000
C000
C000
C080
FF80
ENDCHAR
STARTCHAR 00CA
ENCODING 202
SWIDTH 600 0
DWIDTH 10 0
BBX 9 16 1 0
BITMAP
0800
1400
2200
0000
FF00
C100
C000
C000
C000
FE00
C000
C000
C000
C000
C080
FF80
ENDCHAR
STARTCHAR 00CB
ENCODING 203
SWIDTH 600 0
DWIDTH 10 0
BBX 9 14 1 -3
BITMAP
FF00
C100
C000
C000
C000
FE00
C000
C000
C000
C000
C080
FF80
0000
1800
ENDCHAR
STARTCHAR 00CC
ENCODING 204
SWIDTH 240 0
DWIDTH 4 0
BBX 3 17 1 0
BITMAP
E0
20
40
00
00
E0
40
40
40
40
40
40
40
40
40
40
E0
ENDCHAR
STARTCHAR 00CD
ENCODING 205
SWIDTH 600 0
DWIDTH 10 0
BBX 9 18 1 0
BITMAP
1E00
2000
0800
1400
2200
0000
FF00
C100
C000
C000
C000
FE00
C000
C000
C000
C000
C080
FF80
ENDCHAR
STARTCHAR 00CE
ENCODING 206
SWIDTH 240 0
DWIDTH 4 0
BBX 3 15 1 -3
BITMAP
E0
40
40
40
40
40
40
40
40
40
40
E0
00
40
40
ENDCHAR
STARTCHAR 00CF
ENCODING 207
SWIDTH 600 0
DWIDTH 10 0
BBX 11 15 0 1
BITMAP
0F00
0000
0000
E0E0
6040
6080
3080
1100
0A00
0E00
0400
0400
0400
0400
0E00
ENDCHAR
STARTCHAR 00D0
ENCODING 208
SWIDTH 660 0
DWIDTH 11 0
BBX 12 15 0 0
BITMAP
0030
0010
0030
F0E0
6040
6060
6060
6060
6060
6060
6060
6060
6040
30C0
1F80
ENDCHAR
STARTCHAR 00D1
ENCODING 209
SWIDTH 660 0
DWIDTH 11 0
BBX 11 17 0 0
BITMAP
0700
0100
0200
0000
0000
F0E0
6040
6060
6060
6060
6060
6060
6060
6060
6040
30C0
1F80
ENDCHAR
STARTCHAR 00D2
ENCODING 210
SWIDTH 720 0
DWIDTH 12 0
BBX 11 18 1 0
BITMAP
8000
4000
2400
0A00
1100
0000
3F00
60C0
C040
C060
8060
8020
8020
8060
C060
C040
60C0
3F00
ENDCHAR
STARTCHAR 00D3
ENCODING 211
SWIDTH 720 0
DWIDTH 12 0
BBX 11 18 1 0
BITMAP
0060
00C0
0500
0A00
1100
0000
3F00
60C0
C040
C060
8060
8020
8020
8060
C060
C040
60C0
3F00
ENDCHAR
STARTCHAR 00D4
ENCODING 212
SWIDTH 720 0
DWIDTH 12 0
BBX 11 16 1 0
BITMAP
0400
0A00
1100
0000
3F00
60C0
C040
C060
8060
8020
8020
8060
C060
C040
60C0
3F00
ENDCHAR
STARTCHAR 00D5
ENCODING 213
SWIDTH 720 0
DWIDTH 12 0
BBX 11 17 1 0
BITMAP
0E00
0200
0200
0400
0000
3F00
60C0
C040
C060
8060
8020
8020
8060
C060
C040
60C0
3F00
ENDCHAR
STARTCHAR 00D6
ENCODING 214
SWIDTH 720 0
DWIDTH 12 0
BBX 11 15 1 0
BITMAP
00C0
0020
0040
3F80
60C0
C040
C060
8060
8020
8020
8060
C060
C040
60C0
3F00
ENDCHAR
STARTCHAR 00D7
ENCODING 215
SWIDTH 600 0
DWIDTH 10 0
BBX 9 16 1 0
BITMAP
3000
1800
0400
0000
FF00
C100
C000
C000
C000
FE00
C000
C000
C000
C000
C080
FF80
ENDCHAR
STARTCHAR 00D8
ENCODING 216
SWIDTH 660 0
DWIDTH 11 0
BBX 12 17 0 0
BITMAP
0800
0400
0230
0010
0030
F0E0
6040
6060
6060
6060
6060
6060
6060
6060
6040
30C0
1F80
ENDCHAR
STARTCHAR 00D9
ENCODING 217
SWIDTH 660 0
DWIDTH 11 0
BBX 12 17 0 0
BITMAP
0180
0100
0230
0010
0030
F0E0
6040
6060
6060
6060
6060
6060
6060
6060
6040
30C0
1F80
ENDCHAR
STARTCHAR 00DA
ENCODING 218
SWIDTH 660 0
DWIDTH 11 0
BBX 11 16 0 0
BITMAP
0100
0200
0400
0000
F0E0
6040
6060
6060
6060
6060
6060
6060
6060
6040
30C0
1F80
ENDCHAR
STARTCHAR 00DB
ENCODING 219
SWIDTH 660 0
DWIDTH 11 0
BBX 11 15 0 0
BITMAP
0780
0800
0000
F0E0
6040
6060
6060
6060
6060
6060
6060
6060
6040
30C0
1F80
ENDCHAR
STARTCHAR 00DC
ENCODING 220
SWIDTH 660 0
DWIDTH 11 0
BBX 12 15 0 0
BITMAP
0030
0010
0030
F0E0
6040
6060
6060
6060
6060
6060
6060
6060
6040
30C0
1F80
ENDCHAR
STARTCHAR 00DD
ENCODING 221
SWIDTH 600 0
DWIDTH 10 0
BBX 11 16 0 0
BITMAP
0300
0600
0800
0000
E0E0
6040
6080
3080
1100
0A00
0E00
0400
0400
0400
0400
0E00
ENDCHAR
STARTCHAR 00DE
ENCODING 222
SWIDTH 600 0
DWIDTH 10 0
BBX 9 17 1 0
BITMAP
1C00
0400
0800
0000
0000
FF00
C100
C000
C000
C000
FE00
C000
C000
C000
C000
C080
FF80
ENDCHAR
STARTCHAR 00DF
ENCODING 223
SWIDTH 660 0
DWIDTH 11 0
BBX 10 12 0 0
BITMAP
1F80
2080
60C0
60C0
6180
6F00
60C0
6040
6840
7040
78C0
EF80
ENDCHAR
STARTCHAR 00E0
ENCODING 224
SWIDTH 600 0
DWIDTH 10 0
BBX 11 16 0 0
BITMAP
1800
0C00
0200
0000
0400
0E00
0A00
1300
1100
3180
2180
3F80
40C0
40C0
4040
E0E0
ENDCHAR
STARTCHAR 00E1
ENCODING 225
SWIDTH 600 0
DWIDTH 10 0
BBX 11 16 0 0
BITMAP
0300
0600
0800
0000
0400
0E00
0A00
1300
1100
3180
2180
3F80
40C0
40C0
4040
E0E0
ENDCHAR
STARTCHAR 00E2
ENCODING 226
SWIDTH 600 0
DWIDTH 10 0
BBX 11 16 0 0
BITMAP
0400
0A00
1100
0000
0400
0E00
0A00
1300
1100
3180
2180
3F80
40C0
40C0
4040
E0E0
ENDCHAR
STARTCHAR 00E3
ENCODING 227
SWIDTH 600 0
DWIDTH 10 0
BBX 11 16 0 0
BITMAP
0100
1E00
0000
0000
0400
0E00
0A00
1300
1100
3180
2180
3F80
40C0
40C0
4040
E0E0
ENDCHAR
STARTCHAR 00E4
ENCODING 228
SWIDTH 600 0
DWIDTH 10 0
BBX 11 17 0 0
BITMAP
0E00
0200
0400
0000
0000
0400
0E00
0A00
1300
1100
3180
2180
3F80
40C0
40C0
4040
E0E0
ENDCHAR
STARTCHAR 00E5
ENCODING 229
SWIDTH 600 0
DWIDTH 10 0
BBX 11 14 0 -3
BITMAP
0400
0E00
0A00
1300
1100
3180
2180
3F80
40C0
40C0
4040
E0E0
0000
0C00
ENDCHAR
STARTCHAR 00E6
ENCODING 230
SWIDTH 600 0
DWIDTH 10 0
BBX 11 15 0 0
BITMAP
1200
0C00
0000
0400
0E00
0A00
1300
1100
3180
2180
3F80
40C0
40C0
4040
E0E0
ENDCHAR
STARTCHAR 00E7
ENCODING 231
SWIDTH 660 0
DWIDTH 11 0
BBX 10 16 1 -4
BITMAP
1F80
60C0
4040
C000
8000
8000
8000
8000
C000
C040
60C0
3F80
0800
0600
0200
0E00
ENDCHAR
STARTCHAR 00E8
ENCODING 232
SWIDTH 600 0
DWIDTH 10 0
BBX 9 16 1 0
BITMAP
3000
1800
0400
0000
FF00
C100
C000
C000
C000
FE00
C000
C000
C000
C000
C080
FF80
ENDCHAR
STARTCHAR 00E9
ENCODING 233
SWIDTH 600 0
DWIDTH 10 0
BBX 9 16 1 0
BITMAP
0600
0C00
1000
0000
FF00
C100
C000
C000
C000
FE00
C000
C000
C000
C000
C080
FF80
ENDCHAR
STARTCHAR 00EA
ENCODING 234
SWIDTH 600 0
DWIDTH 10 0
BBX 9 16 1 0
BITMAP
0800
1400
2200
0000
FF00
C100
C000
C000
C000
FE00
C000
C000
C000
C000
C080
FF80
ENDCHAR
STARTCHAR 00EB
ENCODING 235
SWIDTH 600 0
DWIDTH 10 0
BBX 9 15 1 0
BITMAP
3C00
0000
0000
FF00
C100
C000
C000
C000
FE00
C000
C000
C000
C000
C080
FF80
ENDCHAR
STARTCHAR 00EC
ENCODING 236
SWIDTH 240 0
DWIDTH 4 0
BBX 4 16 0 0
BITMAP
C0
60
00
00
70
20
20
20
20
20
20
20
20
20
20
70
ENDCHAR
STARTCHAR 00ED
ENCODING 237
SWIDTH 240 0
DWIDTH 4 0
BBX 4 16 1 0
BITMAP
30
40
80
00
E0
40
40
40
40
40
40
40
40
40
40
E0
ENDCHAR
STARTCHAR 00EE
ENCODING 238
SWIDTH 240 0
DWIDTH 4 0
BBX 4 16 0 0
BITMAP
60
50
80
00
70
20
20
20
20
20
20
20
20
20
20
70
ENDCHAR
STARTCHAR 00EF
ENCODING 239
SWIDTH 240 0
DWIDTH 4 0
BBX 4 15 0 0
BITMAP
F0
00
00
70
20
20
20
20
20
20
20
20
20
20
70
ENDCHAR
STARTCHAR 00F0
ENCODING 240
SWIDTH 600 0
DWIDTH 10 0
BBX 11 18 0 0
BITMAP
0F00
1000
0000
1200
0C00
0000
0400
0E00
0A00
1300
1100
3180
2180
3F80
40C0
40C0
4040
E0E0
ENDCHAR
STARTCHAR 00F1
ENCODING 241
SWIDTH 720 0
DWIDTH 12 0
BBX 12 12 0 0
BITMAP
7F00
20C0
2060
2060
2020
FC30
2030
2020
2060
2060
20C0
7F00
ENDCHAR
STARTCHAR 00F2
ENCODING 242
SWIDTH 720 0
DWIDTH 12 0
BBX 11 16 1 0
BITMAP
1800
0C00
0200
0000
3F00
60C0
C040
C060
8060
8020
8020
8060
C060
C040
60C0
3F00
ENDCHAR
STARTCHAR 00F3
ENCODING 243
SWIDTH 720 0
DWIDTH 12 0
BBX 11 16 1 0
BITMAP
0300
0600
0800
0000
3F00
60C0
C040
C060
8060
8020
8020
8060
C060
C040
60C0
3F00
ENDCHAR
STARTCHAR 00F4
ENCODING 244
SWIDTH 720 0
DWIDTH 12 0
BBX 11 16 1 0
BITMAP
0400
0A00
1100
0000
3F00
60C0
C040
C060
8060
8020
8020
8060
C060
C040
60C0
3F00
ENDCHAR
STARTCHAR 00F5
ENCODING 245
SWIDTH 720 0
DWIDTH 12 0
BBX 11 16 1 0
BITMAP
0100
1E00
0000
0000
3F00
60C0
C040
C060
8060
8020
8020
8060
C060
C040
60C0
3F00
ENDCHAR
STARTCHAR 00F6
ENCODING 246
SWIDTH 720 0
DWIDTH 12 0
BBX 11 15 1 0
BITMAP
1B00
0000
0000
3F00
60C0
C040
C060
8060
8020
8020
8060
C060
C040
60C0
3F00
ENDCHAR
STARTCHAR 00F7
ENCODING 247
SWIDTH 720 0
DWIDTH 12 0
BBX 11 15 1 0
BITMAP
00C0
0020
0040
3F80
60C0
C040
C060
8060
8020
8020
8060
C060
C040
60C0
3F00
ENDCHAR
STARTCHAR 00F8
ENCODING 248
SWIDTH 660 0
DWIDTH 11 0
BBX 11 15 0 -3
BITMAP
F0E0
6040
6060
6060
6060
6060
6060
6060
6060
6040
30C0
1F80
0000
0600
0600
ENDCHAR
STARTCHAR 00F9
ENCODING 249
SWIDTH 660 0
DWIDTH 11 0
BBX 11 16 0 0
BITMAP
0800
0400
0200
0000
F0E0
6040
6060
6060
6060
6060
6060
6060
6060
6040
30C0
1F80
ENDCHAR
STARTCHAR 00FA
ENCODING 250
SWIDTH 660 0
DWIDTH 11 0
BBX 11 16 0 0
BITMAP
0100
0200
0400
0000
F0E0
6040
6060
6060
6060
6060
6060
6060
6060
6040
30C0
1F80
ENDCHAR
STARTCHAR 00FB
ENCODING 251
SWIDTH 660 0
DWIDTH 11 0
BBX 11 17 0 0
BITMAP
0700
0100
0200
0000
0000
F0E0
6040
6060
6060
6060
6060
6060
6060
6060
6040
30C0
1F80
ENDCHAR
STARTCHAR 00FC
ENCODING 252
SWIDTH 660 0
DWIDTH 11 0
BBX 11 15 0 0
BITMAP
0900
0000
0000
F0E0
6040
6060
6060
6060
6060
6060
6060
6060
6040
30C0
1F80
ENDCHAR
STARTCHAR 00FD
ENCODING 253
SWIDTH 600 0
DWIDTH 10 0
BBX 11 17 0 0
BITMAP
0E00
0200
0400
0000
0000
E0E0
6040
6080
3080
1100
0A00
0E00
0400
0400
0400
0400
0E00
ENDCHAR
STARTCHAR 00FE
ENCODING 254
SWIDTH 600 0
DWIDTH 10 0
BBX 9 15 1 0
BITMAP
3C00
0000
0000
FF00
C100
C000
C000
C000
FE00
C000
C000
C000
C000
C080
FF80
ENDCHAR
STARTCHAR 00FF
ENCODING 255
SWIDTH 600 0
DWIDTH 10 0
BBX 11 16 0 0
BITMAP
1000
0800
0400
0000
E0E0
6040
6080
3080
1100
0A00
0E00
0400
0400
0400
0400
0E00
ENDCHAR
STARTCHAR 0106
ENCODING 262
SWIDTH 660 0
DWIDTH 11 0
BBX 0 0 0 0
BITMAP
ENDCHAR
STARTCHAR 0107
ENCODING 263
SWIDTH 420 0
DWIDTH 7 0
BBX 0 0 0 0
BITMAP
ENDCHAR
STARTCHAR 010C
ENCODING 268
SWIDTH 660 0
DWIDTH 11 0
BBX 0 0 0 0
BITMAP
ENDCHAR
STARTCHAR 010D
ENCODING 269
SWIDTH 420 0
DWIDTH 7 0
BBX 0 0 0 0
BITMAP
ENDCHAR
STARTCHAR 0111
ENCODING 273
SWIDTH 540 0
DWIDTH 9 0
BBX 0 0 0 0
BITMAP
ENDCHAR
STARTCHAR 011E
ENCODING 286
SWIDTH 720 0
DWIDTH 12 0
BBX 0 0 0 0
BITMAP
ENDCHAR
STARTCHAR 011F
ENCODING 287
SWIDTH 480 0
DWIDTH 8 0
BBX 0 0 0 0
BITMAP
ENDCHAR
STARTCHAR 0130
ENCODING 304
SWIDTH 240 0
DWIDTH 4 0
BBX 0 0 0 0
BITMAP
ENDCHAR
STARTCHAR 0131
ENCODING 305
SWIDTH 240 0
DWIDTH 4 0
BBX 0 0 0 0
BITMAP
ENDCHAR
STARTCHAR 0141
ENCODING 321
SWIDTH 540 0
DWIDTH 9 0
BBX 0 0 0 0
BITMAP
ENDCHAR
STARTCHAR 0142
ENCODING 322
SWIDTH 180 0
DWIDTH 3 0
BBX 0 0 0 0
BITMAP
ENDCHAR
STARTCHAR 0152
ENCODING 338
SWIDTH 600 0
DWIDTH 10 0
BBX 9 19 1 -3
BITMAP
0800
1400
2200
0000
FF00
C100
C000
C000
C000
FE00
C000
C000
C000
C000
C080
FF80
0000
0800
0800
ENDCHAR
STARTCHAR 0153
ENCODING 339
SWIDTH 600 0
DWIDTH 10 0
BBX 11 15 0 -3
BITMAP
E0E0
6040
6080
3080
1100
0A00
0E00
0400
0400
0400
0400
0E00
0000
0400
0400
ENDCHAR
STARTCHAR 015E
ENCODING 350
SWIDTH 540 0
DWIDTH 9 0
BBX 0 0 0 0
BITMAP
ENDCHAR
STARTCHAR 015F
ENCODING 351
SWIDTH 360 0
DWIDTH 6 0
BBX 0 0 0 0
BITMAP
ENDCHAR
STARTCHAR 0160
ENCODING 352
SWIDTH 600 0
DWIDTH 10 0
BBX 10 18 0 0
BITMAP
C000
6000
1400
0A00
1100
0000
7F80
6080
6000
6000
6000
7F00
6000
6000
6000
6000
6040
7FC0
ENDCHAR
STARTCHAR 0161
ENCODING 353
SWIDTH 600 0
DWIDTH 10 0
BBX 11 16 0 0
BITMAP
0300
0600
0800
0000
E0E0
6040
6080
3080
1100
0A00
0E00
0400
0400
0400
0400
0E00
ENDCHAR
STARTCHAR 0178
ENCODING 376
SWIDTH 720 0
DWIDTH 12 0
BBX 11 18 1 0
BITMAP
0E00
0200
0200
04C0
0020
0040
3F80
60C0
C040
C060
8060
8020
8020
8060
C060
C040
60C0
3F00
ENDCHAR
STARTCHAR 017D
ENCODING 381
SWIDTH 540 0
DWIDTH 9 0
BBX 0 0 0 0
BITMAP
ENDCHAR
STARTCHAR 017E
ENCODING 382
SWIDTH 360 0
DWIDTH 6 0
BBX 0 0 0 0
BITMAP
ENDCHAR
STARTCHAR 0192
ENCODING 402
SWIDTH 600 0
DWIDTH 10 0
BBX 11 18 0 0
BITMAP
0020
0040
0480
0A00
1100
0000
0400
0E00
0A00
1300
1100
3180
2180
3F80
40C0
40C0
4040
E0E0
ENDCHAR
STARTCHAR 02C6
ENCODING 710
SWIDTH 600 0
DWIDTH 10 0
BBX 11 15 0 0
BITMAP
1200
0C00
0000
0400
0E00
0A00
1300
1100
3180
2180
3F80
40C0
40C0
4040
E0E0
ENDCHAR
STARTCHAR 02C7
ENCODING 711
SWIDTH 480 0
DWIDTH 8 0
BBX 0 0 0 0
BITMAP
ENDCHAR
STARTCHAR 02DA
ENCODING 730
SWIDTH 480 0
DWIDTH 8 0
BBX 0 0 0 0
BITMAP
ENDCHAR
STARTCHAR 02DB
ENCODING 731
SWIDTH 480 0
DWIDTH 8 0
BBX 0 0 0 0
BITMAP
ENDCHAR
STARTCHAR 02DC
ENCODING 732
SWIDTH 720 0
DWIDTH 12 0
BBX 11 19 1 0
BITMAP
0080
0140
0080
0500
0A00
1100
0000
3F00
60C0
C040
C060
8060
8020
8020
8060
C060
C040
60C0
3F00
ENDCHAR
STARTCHAR 03A9
ENCODING 937
SWIDTH 720 0
DWIDTH 12 0
BBX 0 0 0 0
BITMAP
ENDCHAR
STARTCHAR 03C0
ENCODING 960
SWIDTH 660 0
DWIDTH 11 0
BBX 0 0 0 0
BITMAP
ENDCHAR
STARTCHAR 2013
ENCODING 8211
SWIDTH 720 0
DWIDTH 12 0
BBX 11 18 1 0
BITMAP
0060
00C0
0500
0A00
1100
0000
3F00
60C0
C040
C060
8060
8020
8020
8060
C060
C040
60C0
3F00
ENDCHAR
STARTCHAR 2014
ENCODING 8212
SWIDTH 720 0
DWIDTH 12 0
BBX 11 18 1 0
BITMAP
8000
4000
2400
0A00
1100
0000
3F00
60C0
C040
C060
8060
8020
8020
8060
C060
C040
60C0
3F00
ENDCHAR
STARTCHAR 2018
ENCODING 8216
SWIDTH 240 0
DWIDTH 4 0
BBX 2 4 2 8
BITMAP
80
80
80
C0
ENDCHAR
STARTCHAR 2019
ENCODING 8217
SWIDTH 240 0
DWIDTH 4 0
BBX 2 4 1 8
BITMAP
C0
40
40
80
ENDCHAR
STARTCHAR 201A
ENCODING 8218
SWIDTH 600 0
DWIDTH 10 0
BBX 11 16 0 0
BITMAP
0100
1E00
0000
0000
0400
0E00
0A00
1300
1100
3180
2180
3F80
40C0
40C0
4040
E0E0
ENDCHAR
STARTCHAR 201C
ENCODING 8220
SWIDTH 600 0
DWIDTH 10 0
BBX 10 18 0 0
BITMAP
C000
6000
1400
0A00
1100
0000
7F80
6080
6000
6000
6000
7F00
6000
6000
6000
6000
6040
7FC0
ENDCHAR
STARTCHAR 201D
ENCODING 8221
SWIDTH 600 0
DWIDTH 10 0
BBX 9 19 1 0
BITMAP
0300
0080
0100
0A00
1400
2200
0000
FF00
C100
C000
C000
C000
FE00
C000
C000
C000
C000
C080
FF80
ENDCHAR
STARTCHAR 201E
ENCODING 8222
SWIDTH 600 0
DWIDTH 10 0
BBX 11 18 0 0
BITMAP
C000
6000
1400
0A00
1100
0000
0400
0E00
0A00
1300
1100
3180
2180
3F80
40C0
40C0
4040
E0E0
ENDCHAR
STARTCHAR 2020
ENCODING 8224
SWIDTH 720 0
DWIDTH 12 0
BBX 11 15 1 -3
BITMAP
3F00
60C0
C040
C060
8060
8020
8020
8060
C060
C040
60C0
3F00
0000
0400
0400
ENDCHAR
STARTCHAR 2021
ENCODING 8225
SWIDTH 720 0
DWIDTH 12 0
BBX 11 18 1 0
BITMAP
0F00
1000
0400
0A00
1100
0000
3F00
60C0
C040
C060
8060
8020
8020
8060
C060
C040
60C0
3F00
ENDCHAR
STARTCHAR 2022
ENCODING 8226
SWIDTH 600 0
DWIDTH 10 0
BBX 9 18 1 0
BITMAP
1E00
2000
0800
1400
2200
0000
FF00
C100
C000
C000
C000
FE00
C000
C000
C000
C000
C080
FF80
ENDCHAR
STARTCHAR 2026
ENCODING 8230
SWIDTH 600 0
DWIDTH 10 0
BBX 11 19 0 0
BITMAP
0180
0080
0080
0500
0A00
1100
0000
0400
0E00
0A00
1300
1100
3180
2180
3F80
40C0
40C0
4040
E0E0
ENDCHAR
STARTCHAR 2030
ENCODING 8240
SWIDTH 600 0
DWIDTH 10 0
BBX 10 18 1 0
BITMAP
00C0
0180
0A00
1400
2200
0000
FF00
C100
C000
C000
C000
FE00
C000
C000
C000
C000
C080
FF80
ENDCHAR
STARTCHAR 2039
ENCODING 8249
SWIDTH 600 0
DWIDTH 10 0
BBX 9 19 1 0
BITMAP
0300
0080
0100
0A00
1400
2200
0000
FF00
C100
C000
C000
C000
FE00
C000
C000
C000
C000
C080
FF80
ENDCHAR
STARTCHAR 203A
ENCODING 8250
SWIDTH 600 0
DWIDTH 10 0
BBX 11 17 0 0
BITMAP
0E00
0200
0400
0000
0000
E0E0
6040
6080
3080
1100
0A00
0E00
0400
0400
0400
0400
0E00
ENDCHAR
STARTCHAR 20A3
ENCODING 8355
SWIDTH 840 0
DWIDTH 14 0
BBX 0 0 0 0
BITMAP
ENDCHAR
STARTCHAR 2122
ENCODING 8482
SWIDTH 720 0
DWIDTH 12 0
BBX 11 18 1 0
BITMAP
0F00
1000
0400
0A00
1100
0000
3F00
60C0
C040
C060
8060
8020
8020
8060
C060
C040
60C0
3F00
ENDCHAR
STARTCHAR 2202
ENCODING 8706
SWIDTH 480 0
DWIDTH 8 0
BBX 0 0 0 0
BITMAP
ENDCHAR
STARTCHAR 2206
ENCODING 8710
SWIDTH 540 0
DWIDTH 9 0
BBX 0 0 0 0
BITMAP
ENDCHAR
STARTCHAR 220F
ENCODING 8719
SWIDTH 720 0
DWIDTH 12 0
BBX 0 0 0 0
BITMAP
ENDCHAR
STARTCHAR 2211
ENCODING 8721
SWIDTH 660 0
DWIDTH 11 0
BBX 0 0 0 0
BITMAP
ENDCHAR
STARTCHAR 2212
ENCODING 8722
SWIDTH 780 0
DWIDTH 13 0
BBX 0 0 0 0
BITMAP
ENDCHAR
STARTCHAR 2215
ENCODING 8725
SWIDTH 120 0
DWIDTH 2 0
BBX 0 0 0 0
BITMAP
ENDCHAR
STARTCHAR 2219
ENCODING 8729
SWIDTH 240 0
DWIDTH 4 0
BBX 3 17 1 0
BITMAP
E0
20
40
00
00
E0
40
40
40
40
40
40
40
40
40
40
E0
ENDCHAR
STARTCHAR 221A
ENCODING 8730
SWIDTH 600 0
DWIDTH 10 0
BBX 0 0 0 0
BITMAP
ENDCHAR
STARTCHAR 221E
ENCODING 8734
SWIDTH 780 0
DWIDTH 13 0
BBX 0 0 0 0
BITMAP
ENDCHAR
STARTCHAR 222B
ENCODING 8747
SWIDTH 480 0
DWIDTH 8 0
BBX 0 0 0 0
BITMAP
ENDCHAR
STARTCHAR 2248
ENCODING 8776
SWIDTH 780 0
DWIDTH 13 0
BBX 0 0 0 0
BITMAP
ENDCHAR
STARTCHAR 2260
ENCODING 8800
SWIDTH 780 0
DWIDTH 13 0
BBX 0 0 0 0
BITMAP
ENDCHAR
STARTCHAR 2264
ENCODING 8804
SWIDTH 780 0
DWIDTH 13 0
BBX 0 0 0 0
BITMAP
ENDCHAR
STARTCHAR 2265
ENCODING 8805
SWIDTH 780 0
DWIDTH 13 0
BBX 0 0 0 0
BITMAP
ENDCHAR
STARTCHAR 25CA
ENCODING 9674
SWIDTH 480 0
DWIDTH 8 0
BBX 0 0 0 0
BITMAP
ENDCHAR
STARTCHAR F000
ENCODING 61440
SWIDTH 780 0
DWIDTH 13 0
BBX 0 0 0 0
BITMAP
ENDCHAR
STARTCHAR F001
ENCODING 61441
SWIDTH 480 0
DWIDTH 8 0
BBX 0 0 0 0
BITMAP
ENDCHAR
STARTCHAR F002
ENCODING 61442
SWIDTH 480 0
DWIDTH 8 0
BBX 0 0 0 0
BITMAP
ENDCHAR
ENDFONT
